<?xml version="1.0" encoding="UTF-8" standalone="no"?>
<!DOCTYPE svg PUBLIC "-//W3C//DTD SVG 1.1//EN" "http://www.w3.org/Graphics/SVG/1.1/DTD/svg11.dtd">
<svg version="1.1" xmlns="http://www.w3.org/2000/svg" xmlns:xlink="http://www.w3.org/1999/xlink" preserveAspectRatio="xMidYMid meet" viewBox="0 0 640 640" width="640" height="640"><defs><path d="M85.85 236.3C40.36 236.3 3.49 272.73 3.49 317.67C3.49 362.61 40.36 399.04 85.85 399.04C131.33 399.04 168.21 362.61 168.21 317.67C168.21 272.73 131.33 236.3 85.85 236.3Z" id="a3wpQV0aMP"></path><path d="M65.16 357.04C57.19 353.81 51 347.28 48.2 339.15C46.67 334.76 45.91 330.14 45.96 325.5C45.93 318.94 47.27 312.45 49.89 306.44C52.44 300.53 56.1 295.16 60.67 290.63C65.34 286.04 70.84 282.38 76.87 279.83C83.24 277.12 90.09 275.76 97.01 275.81C104.42 275.42 111.75 277.45 117.91 281.58C123.14 285.51 126.07 291.79 125.71 298.32C125.71 315.7 110.18 324.39 79.12 324.39C75.69 324.39 73.79 324.39 73.41 324.39C71.45 324.39 69.39 324.29 67.22 324.08C67.22 325.29 67.22 325.96 67.22 326.09C67.01 330.8 68.31 335.45 70.93 339.36C73.74 342.92 78.14 344.83 82.66 344.45C86.72 344.46 90.73 343.46 94.3 341.52C97.89 339.62 100.9 336.8 103.02 333.35C104.65 333.85 117.73 337.92 119.37 338.43C117.24 341.61 114.7 344.48 111.81 347C108.83 349.62 105.54 351.87 102.02 353.7C98.46 355.56 94.71 357.02 90.83 358.04C86.96 359.05 82.97 359.57 78.97 359.57C74.25 359.65 69.55 358.79 65.16 357.04ZM85.6 292.39C83.08 293.45 80.76 294.93 78.74 296.79C76.69 298.71 74.9 300.89 73.43 303.29C71.88 305.75 70.64 308.39 69.72 311.15C71.36 311.26 72.96 311.31 74.5 311.31C74.98 311.31 78.8 311.31 79.28 311.31C83.48 311.36 87.68 311.1 91.85 310.54C94.73 310.19 97.54 309.41 100.18 308.23C101.98 307.44 103.55 306.2 104.72 304.62C105.66 303.18 106.14 301.48 106.11 299.76C106.26 297.08 104.96 294.52 102.71 293.05C100.06 291.44 96.99 290.65 93.9 290.78C93.9 290.78 93.9 290.78 93.9 290.78C90.13 291.13 87.36 291.67 85.6 292.39Z" id="c3bsX88ZHF"></path><path d="M269.06 291.92C269.06 298.19 268.66 303.76 268.13 304.18C267.73 304.74 266.14 304.04 264.67 302.79C262.81 300.98 259.88 300.28 253.76 300.28C246.58 300.28 244.85 300.84 241.79 303.76C239.79 305.71 237.4 308.92 236.33 311.01C233.54 316.58 233.94 328.7 237.13 334.14C242.72 343.61 254.69 346.96 263.34 341.52C267.47 338.74 267.47 338.74 269.46 341.8C271.06 344.45 271.72 344.59 273.59 342.92C275.45 341.25 275.72 337.2 275.72 311.57C275.72 290.39 275.32 281.61 274.12 280.35C272.26 278.4 271.19 278.26 269.99 279.66C269.46 280.07 269.06 285.65 269.06 291.92ZM269.06 321.88C269.06 331.49 268.93 331.77 264.81 334.42C258.02 338.74 249.77 338.18 244.98 333.16C241.79 329.68 241.12 327.87 241.12 322.16C241.12 316.58 241.92 314.21 244.58 310.87C247.51 307.11 248.97 306.55 254.16 306.55C258.02 306.55 262.01 307.66 264.81 309.34C268.93 311.98 269.06 312.26 269.06 321.88Z" id="dGkKUcbj8"></path><path d="M499.68 293.31C502.61 294.32 502.61 294.32 504.21 291.42C506.47 287.64 501.55 283.1 498.49 286.12C496.76 287.64 497.56 292.56 499.68 293.31Z" id="c4do2UKIh0"></path><path d="M187.11 342.64C188.31 343.75 194.69 344.17 206.67 343.89C223.96 343.48 224.49 343.34 224.89 340.41C225.29 337.34 225.03 337.34 208.93 336.93C207.84 336.9 202.38 336.76 192.56 336.51L192.16 326.48L191.76 316.44C200.79 316.19 205.8 316.05 206.8 316.02C220.77 315.61 221.83 315.47 221.83 312.82C221.83 310.17 220.77 310.03 206.93 309.61C205.93 309.59 200.92 309.45 191.9 309.2L191.9 299.58L191.9 289.97C201.72 289.72 207.17 289.58 208.26 289.55C223.43 289.13 224.49 288.99 224.49 286.34C224.49 283.7 223.43 283.56 206.53 283.14C193.63 282.86 188.04 283.28 186.84 284.53C184.31 287.18 184.58 340.41 187.11 342.64Z" id="aOfu4sVmE"></path><path d="M289.29 308.36C289.68 332.75 290.48 334.98 300.46 341.11C304.72 343.75 307.11 344.17 313.9 343.75C323.21 343.34 327.6 340.69 332.66 333.02C335.32 328.7 335.58 326.89 335.58 306.41C335.58 284.25 334.92 280.77 330.93 284.25C329.33 285.65 328.93 290.25 328.93 306.83C328.93 308.22 328.93 315.19 328.93 327.73C326.14 330.66 324.59 332.28 324.28 332.61C319.75 337.34 319.22 337.48 311.5 336.93C305.12 336.37 302.86 335.67 299.93 332.61C296.34 328.84 296.34 328.43 295.67 306.13C295.14 286.07 294.74 283.56 292.61 283.14C291.41 282.86 289.95 283.56 289.55 284.67C289.15 285.79 289.02 296.52 289.29 308.36Z" id="d28GXuKGbc"></path><path d="M352.88 313.52C352.88 340.97 353.55 344.87 357.67 343.2C359.13 342.64 359.53 337.62 359.53 318.95C359.53 305.99 360.06 295.4 360.6 295.4C361.26 295.4 368.85 305.85 377.49 318.67C386.27 331.63 393.99 342.5 394.79 343.06C396.92 344.73 399.05 344.31 401.31 341.94C404.37 338.88 404.5 286.9 401.44 284.25C397.45 280.77 396.78 284.25 396.78 308.08C396.78 326.48 396.39 331.77 395.19 331.35C394.26 330.93 387.6 322.02 380.55 311.29C373.37 300.7 366.05 289.83 364.19 287.32C360.6 282.72 357.27 281.61 354.48 284.53C353.28 285.79 352.88 294.15 352.88 313.52Z" id="jDb016lQj"></path><path d="M571.07 343.48C571.87 344.03 573.33 343.61 574.4 342.78C575.99 341.39 576.39 336.51 576.39 318.25C576.39 305.71 576.79 295.4 577.46 295.4C577.99 295.54 585.57 306.13 594.22 319.09C617.64 353.93 618.97 353.51 618.97 312.68C618.97 284.25 618.44 280.77 614.31 284.25C612.85 285.51 612.32 291.08 612.05 309.61C612.02 311.2 611.89 319.15 611.65 333.44C601.67 318.48 596.13 310.16 595.02 308.5C578.39 283.7 575.2 280.49 571.34 284.53C569.21 286.76 569.08 342.08 571.07 343.48Z" id="dsFxve9qL"></path><path d="M464.24 306.55C467.3 306.55 467.3 306.69 467.3 321.74C467.3 334.84 467.7 337.34 470.09 340.55C472.22 343.48 473.95 344.17 478.47 344.17C488.72 344.17 490.98 337.62 481 336.93C480.58 336.9 478.45 336.76 474.62 336.51L474.22 321.46L473.82 306.55C477.41 306.55 479.4 306.55 479.8 306.55C483.53 306.55 485.92 305.85 486.32 304.6C487.39 301.67 484.46 299.58 479.14 299.58C474.35 299.58 474.08 299.3 473.68 294.71C473.66 294.37 473.52 292.7 473.28 289.69L466.23 297.21C461.18 303.44 460.51 306.55 464.24 306.55Z" id="b1n9uH97Iv"></path><path d="M419.4 305.16C419.4 307.66 420.2 307.8 427.92 306.97C439.23 305.85 442.82 306.97 444.41 311.98C445.21 314.21 445.48 316.44 445.08 316.86C444.55 317.28 440.96 317.7 436.83 317.84C426.45 317.84 420.73 320.34 417.67 325.64C415.54 329.54 415.41 330.93 416.74 335.11C417.54 337.76 419.54 340.97 421.13 342.08C425.12 345.01 433.77 344.73 439.76 341.39C445.61 338.04 446.01 338.04 446.01 340.55C446.01 343.89 448.94 344.73 450.8 342.08C452.13 340.27 452.53 335.39 452.13 324.8C451.73 308.64 450.14 304.18 443.88 301.25C439.89 299.3 428.18 299.3 423.13 301.25C420.87 302.09 419.4 303.62 419.4 305.16ZM423.79 333.44C422.06 330.8 422.2 330.1 424.59 327.59C426.85 325.22 429.11 324.66 436.7 324.66C445.74 324.66 446.01 324.8 446.01 328.15C446.01 336.23 428.18 340.55 423.79 333.44Z" id="crbNHOOOB"></path><path d="M496.57 321.18C496.57 337.34 496.97 341.39 498.56 342.78C502.55 346.26 503.35 342.36 502.95 321.04C502.55 303.62 502.29 300.28 500.56 299.86C499.36 299.72 498.03 299.86 497.5 300.42C496.97 300.98 496.57 310.31 496.57 321.18Z" id="a7fmJUPpL"></path><path d="M515.59 320.34C514.66 334.28 523.04 344.17 536.21 344.17C546.46 344.17 554.04 337.9 556.3 327.45C558.7 316.3 554.71 305.85 546.46 301.81C540.47 298.75 530.09 299.02 525.17 302.23C519.18 305.99 516.26 311.43 515.59 320.34ZM549.25 327.87C546.86 334.14 542.47 337.2 535.82 337.2C524.51 337.07 518.25 324.8 523.84 313.52C526.5 308.08 529.3 306.69 536.61 306.55C541.4 306.55 543.53 307.25 546.19 310.03C550.45 314.63 551.78 321.74 549.25 327.87Z" id="beB9kacWc"></path></defs><g><g><g><use xlink:href="#a3wpQV0aMP" opacity="1" fill="#00bfd8" fill-opacity="1"></use><g><use xlink:href="#a3wpQV0aMP" opacity="1" fill-opacity="0" stroke="#000000" stroke-width="1" stroke-opacity="0"></use></g></g><g><use xlink:href="#c3bsX88ZHF" opacity="1" fill="#ffffff" fill-opacity="1"></use><g><use xlink:href="#c3bsX88ZHF" opacity="1" fill-opacity="0" stroke="#000000" stroke-width="1" stroke-opacity="0"></use></g></g><g><use xlink:href="#dGkKUcbj8" opacity="1" fill="#000000" fill-opacity="1"></use><g><use xlink:href="#dGkKUcbj8" opacity="1" fill-opacity="0" stroke="#000000" stroke-width="1" stroke-opacity="0"></use></g></g><g><use xlink:href="#c4do2UKIh0" opacity="1" fill="#000000" fill-opacity="1"></use><g><use xlink:href="#c4do2UKIh0" opacity="1" fill-opacity="0" stroke="#000000" stroke-width="1" stroke-opacity="0"></use></g></g><g><use xlink:href="#aOfu4sVmE" opacity="1" fill="#000000" fill-opacity="1"></use><g><use xlink:href="#aOfu4sVmE" opacity="1" fill-opacity="0" stroke="#000000" stroke-width="1" stroke-opacity="0"></use></g></g><g><use xlink:href="#d28GXuKGbc" opacity="1" fill="#000000" fill-opacity="1"></use><g><use xlink:href="#d28GXuKGbc" opacity="1" fill-opacity="0" stroke="#000000" stroke-width="1" stroke-opacity="0"></use></g></g><g><use xlink:href="#jDb016lQj" opacity="1" fill="#000000" fill-opacity="1"></use><g><use xlink:href="#jDb016lQj" opacity="1" fill-opacity="0" stroke="#000000" stroke-width="1" stroke-opacity="0"></use></g></g><g><use xlink:href="#dsFxve9qL" opacity="1" fill="#000000" fill-opacity="1"></use><g><use xlink:href="#dsFxve9qL" opacity="1" fill-opacity="0" stroke="#000000" stroke-width="1" stroke-opacity="0"></use></g></g><g><use xlink:href="#b1n9uH97Iv" opacity="1" fill="#000000" fill-opacity="1"></use><g><use xlink:href="#b1n9uH97Iv" opacity="1" fill-opacity="0" stroke="#000000" stroke-width="1" stroke-opacity="0"></use></g></g><g><use xlink:href="#crbNHOOOB" opacity="1" fill="#000000" fill-opacity="1"></use><g><use xlink:href="#crbNHOOOB" opacity="1" fill-opacity="0" stroke="#000000" stroke-width="1" stroke-opacity="0"></use></g></g><g><use xlink:href="#a7fmJUPpL" opacity="1" fill="#000000" fill-opacity="1"></use><g><use xlink:href="#a7fmJUPpL" opacity="1" fill-opacity="0" stroke="#000000" stroke-width="1" stroke-opacity="0"></use></g></g><g><use xlink:href="#beB9kacWc" opacity="1" fill="#000000" fill-opacity="1"></use><g><use xlink:href="#beB9kacWc" opacity="1" fill-opacity="0" stroke="#000000" stroke-width="1" stroke-opacity="0"></use></g></g></g></g></svg>